<svg version="1.1" id="Layer_1" xmlns="http://www.w3.org/2000/svg" xmlns:xlink="http://www.w3.org/1999/xlink" x="0px" y="0px" viewBox="0 0 60 60" style="enable-background:new 0 0 60 60;" xml:space="preserve">
 <style type="text/css">
  .st0{fill:#CB2026;}
 </style>
 <desc>
  Created with Sketch.
 </desc>
 <g id="Page-1">
  <g id="red-bain-logo-orig">
   <path id="Shape_12_" class="st0" d="M40.6,31.6L35.1,7.3L20,26.9L40.6,31.6z M60,30c0,16.6-13.4,30-30,30C13.4,60,0,46.6,0,30
			S13.4,0,30,0c1.6,0,3.1,0.2,4.7,0.4l-2.5,3.3H30c-6.6-0.1-13,2.5-17.8,7.1c-4.7,4.6-7.5,11-7.5,17.6c0,14,11.3,25.3,25.3,25.3
			c14,0,25.3-11.3,25.3-25.3C55.2,18.2,48.8,9.1,39.2,5.5l-1-4.1C51.1,4.9,60,16.7,60,30z">
   </path>
  </g>
 </g>
</svg>